Movies : Animation : BluRay : Japanese


Grave of the Fireflies 1988 1080p BluRay DTS x264 - alrmothe

 
http://img849.imageshack.us/img849/5659/coversxi.jpg







IMDB: 
http://www.imdb.com/title/tt0095327
Genre:Animation | Drama | War
Source:Blu-ray Disc
Language:Japanese
File size:5.46 GiB
Overall bit rate:8828 Kbps
Duration:1h 28mn 
Encoded / Released By:alrmothe


StorylineSetsuko and Seita are brother and sister living in wartime Japan. After their mother is killed in an air raid they find a temporary home with relatives. Having quarreled with their aunt they leave the city and make their home in an abandoned shelter. While their soldier father's destiny is unknown, the two must depend on each other to somehow keep a roof over their heads and food in their stomachs. When everything is in short supply, they gradually succumb to hunger and their only entertainment is the light of the fireflies.



cast
Tsutomu Tatsumi	.. Seita (voice)
Ayano Shiraishi .. Setsuko (voice)
Yoshiko Shinohara .. Mother (voice)
Akemi Yamaguchi	 .. Aunt (voice)



Video Information
Format: Matroska
Format: AVC
Format/Info : Advanced Video Codec
Format profile: High@L4.1
Format settings, CABAC: Yes
Format settings, ReFrames: 4 frames
Muxing mode: Header stripping
Codec ID: V_MPEG4/ISO/AVC
Bit rate: 7324 Kbps
Display aspect ratio: 1.85:1
Frame rate mode: Constant
Frame rate: 23.976 fps
Color space: YUV
Chroma subsampling: 4:2:0
Bit depth: 8 bits
Scan type: Progressive
Bits/(Pixel*Frame): 0.153
Stream size: 4.42 GiB(81%)
Resolution:1920x1040


Audio Information:

Format: DTS
Format/Info : Digital Theater Systems
Mode: 16
Format settings, Endianness: Big
Muxing mode : Header stripping
Codec ID: A_DTS
Bit rate mode: Constant
Bit rate : 1 509 Kbps
Channel(s): 2 channels
Channel positions: Front: L C R, Side: L R, LFE
Sampling rate : 48.0 KHz
Bit depth: 24 bits
Compression mode: Lossy
Stream size: 956 GiB (17%)
Language:Japanese


SUB:English,Arabic,swedish 
indonesian,vietnamese




Screenshots 
http://img832.imageshack.us/img832/4245/31003929.jpg 
http://img844.imageshack.us/img844/776/12060179.jpg 
http://img14.imageshack.us/img14/3195/31231379.jpg 
http://img259.imageshack.us/img259/2038/74124660.jpg 
http://img856.imageshack.us/img856/762/30831008.jpg 
http://img132.imageshack.us/img132/7306/58931006.jpg 
http://img826.imageshack.us/img826/7677/graveofthefireflies1988.jpg



Code:

 
http://121.14.98.151:9090/announce 
http://tracker.ex.ua/announce 
http://tracker.torrentbay.to:6969/announce 
http://exodus.desync.com:6969/announce 
http://94.228.192.98/announce
udp://tracker.istole.it:80/announce


 
http://torrent-stats.info/60c7/c9b0fb2a.png




Trailer
